<svg id="Calque_1" data-name="Calque 1" xmlns="http://www.w3.org/2000/svg" viewBox="0 0 60 60"><defs><style>.cls-1{fill:#315fa6;}.cls-2{font-size:7.55px;font-family:Prompt-SemiBold, Prompt;font-weight:600;}.cls-2,.cls-3,.cls-4{fill:#fff;}.cls-3{font-size:1.52px;font-family:SofiaPro, Sofia Pro;}</style></defs><title>x</title><circle id="Oval-2" class="cls-1" cx="30" cy="30" r="30.01"/><text class="cls-2" transform="translate(10.23 40.39) scale(1.04 1)">QUANTUM</text><text class="cls-3" transform="translate(16.13 43.45)">INSPECCIÓN DE CONTROL DE CALIDAD</text><path class="cls-4" d="M37.76,24.66c0-.18,0-.35,0-.53a8.6,8.6,0,0,0-1-4.13,7,7,0,0,0-2.75-2.82,8.63,8.63,0,0,0-8.1,0A7,7,0,0,0,23.2,20a8.6,8.6,0,0,0-1,4.13,8.61,8.61,0,0,0,1,4.14A7.1,7.1,0,0,0,26,31.09a8.06,8.06,0,0,0,4.05,1,8.78,8.78,0,0,0,2.85-.46,7.22,7.22,0,0,0,2.27-1.28l2.64,2.51h0v-8.2Zm-7.89.7,3.18,3a4.58,4.58,0,0,1-3,1A4.41,4.41,0,0,1,26.54,28a5.64,5.64,0,0,1-1.27-3.87,6.37,6.37,0,0,1,.59-2.82,4.2,4.2,0,0,1,1.64-1.84,5.2,5.2,0,0,1,5,0,4.29,4.29,0,0,1,1.65,1.84,6.51,6.51,0,0,1,.57,2.82,8.28,8.28,0,0,1-.09,1.23Z"/></svg>